{"title":"Planes.Fire.And.Rescue.2014.CAM.XviD-VAiN","uid":10648566,"size":1093147747,"categoryP":"video","categoryS":"movies","magnet":"?xt=urn:btih:f0dc3062f7d20965b716d294e3890ad42c00458a&amp;dn=Planes.Fire.And.Rescue.2014.CAM.XviD-VAiN&amp;tr=udp%3A%2F%2Ftracker.openbittorrent.com%3A80&amp;tr=udp%3A%2F%2Fopen.demonii.com%3A1337&amp;tr=udp%3A%2F%2Ftracker.coppersurfer.tk%3A6969&amp;tr=udp%3A%2F%2Fexodus.desync.com%3A6969","seeders":5,"leechers":0,"uploader":"Xetron","files":4,"time":1406579040,"description":" &lt;a href=&quot;\nhttp://i.imgur.com/FJi0aRt.png&quot; rel=&quot;nofollow&quot; target=&quot;_NEW&quot;&gt;\nhttp://i.imgur.com/FJi0aRt.png&lt;/a&gt;\n\nP R E S E N T S . . .  \n\nPlanes.Fire.And.Rescue.2014.CAM.XviD-VAiN\n\niMDB........: http://www.imdb.com/title/tt2980706/\n\nWhen Dusty learns that his engine is damaged and he may never race again, he joins a forest fire and rescue unit to be trained as a firefighter.\n\n\nT E C H N i C A L . i N F O . . .  \n    \nGeneral\nFormat                                   : AVI\nFormat/Info                              : Audio Video Interleave\nFile size                                : 1.00 GiB\nDuration                                 : 1h 13mn\nOverall bit rate                         : 1 940 Kbps\nWriting application                      : VirtualDubMod 1.5.10.2 (build 2540/release)\nWriting library                          : VirtualDubMod build 2540/release\n\nVideo\nID                                       : 0\nFormat                                   : MPEG-4 Visual\nFormat profile                           : Advanced Simple@L5\nFormat settings, BVOP                    : 1\nFormat settings, QPel                    : No\nFormat settings, GMC                     : No warppoints\nFormat settings, Matrix                  : Default (MPEG)\nCodec ID                                 : XVID\nCodec ID/Hint                            : XviD\nDuration                                 : 1h 13mn\nBit rate                                 : 1 739 Kbps\nWidth                                    : 720 pixels\nHeight                                   : 384 pixels\nDisplay aspect ratio                     : 1.85:1\nFrame rate                               : 23.976 fps\nColor space                              : YUV\nChroma subsampling                       : 4:2:0\nBit depth                                : 8 bits\nScan type                                : Progressive\nCompression mode                         : Lossy\nBits/(Pixel*Frame)                       : 0.262\nStream size                              : 919 MiB (90%)\nWriting library                          : XviD 1.2.1 (UTC 2008-12-04)\n\nAudio\nID                                       : 1\nFormat                                   : MPEG Audio\nFormat version                           : Version 1\nFormat profile                           : Layer 3\nMode                                     : Joint stereo\nMode extension                           : MS Stereo\nCodec ID                                 : 55\nCodec ID/Hint                            : MP3\nDuration                                 : 1h 13mn\nBit rate mode                            : Constant\nBit rate                                 : 192 Kbps\nChannel(s)                               : 2 channels\nSampling rate                            : 48.0 KHz\nCompression mode                         : Lossy\nDelay relative to video                  : 1s 488ms\nStream size                              : 102 MiB (10%)\nAlignment                                : Split accross interleaves\nInterleave, duration                     : 42 ms (1.00 video frame)\nInterleave, preload duration             : 504 ms\n\n\n\n\n\n\n\nE N C O D E R S . N O T E S . . .       \n\nSOURCE......: video:aviones.mp4\n\t      audio:S@nt@n@s \nSAMPLE......: Yes\nADDED NOTE..:  nice vide, needed sum de-int, resized, lvls, colors blah... audio was very nice. little hollow but stripped channels, EQ, sum more filters, re-masted and BAM!!!\n\nsure sum will complain sum will love... \n\n\n\nS C R E E N . S H O T S . . .\n &lt;a href=&quot;\nhttp://i.imgur.com/omC10VO.png&quot; rel=&quot;nofollow&quot; target=&quot;_NEW&quot;&gt;\nhttp://i.imgur.com/omC10VO.png&lt;/a&gt;\n &lt;a href=&quot;\nhttp://i.imgur.com/vbsDCUD.png&quot; rel=&quot;nofollow&quot; target=&quot;_NEW&quot;&gt;\nhttp://i.imgur.com/vbsDCUD.png&lt;/a&gt;\n &lt;a href=&quot;\nhttp://i.imgur.com/O2nLYHP.png&quot; rel=&quot;nofollow&quot; target=&quot;_NEW&quot;&gt;\nhttp://i.imgur.com/O2nLYHP.png&lt;/a&gt;\n &lt;a href=&quot;\nhttp://i.imgur.com/ek3ABgA.png&quot; rel=&quot;nofollow&quot; target=&quot;_NEW&quot;&gt;\nhttp://i.imgur.com/ek3ABgA.png&lt;/a&gt;\n &lt;a href=&quot;\nhttp://i.imgur.com/0TGqQC6.png&quot; rel=&quot;nofollow&quot; target=&quot;_NEW&quot;&gt;\nhttp://i.imgur.com/0TGqQC6.png&lt;/a&gt;\n &lt;a href=&quot;\nhttp://i.imgur.com/3QrVf77.png&quot; rel=&quot;nofollow&quot; target=&quot;_NEW&quot;&gt;\nhttp://i.imgur.com/3QrVf77.png&lt;/a&gt;\n &lt;a href=&quot;\nhttp://i.imgur.com/VOaAiEI.png&quot; rel=&quot;nofollow&quot; target=&quot;_NEW&quot;&gt;\nhttp://i.imgur.com/VOaAiEI.png&lt;/a&gt;\n\n\n\nGREETZ:\n\nW4NTED worthy rival grps to add here. ;) SUCKAS!!!!!!!\n","torrent":{"xt":"urn:btih:f0dc3062f7d20965b716d294e3890ad42c00458a","amp;dn":"Planes.Fire.And.Rescue.2014.CAM.XviD-VAiN","amp;tr":["udp%3A%2F%2Ftracker.openbittorrent.com%3A80","udp%3A%2F%2Fopen.demonii.com%3A1337","udp%3A%2F%2Ftracker.coppersurfer.tk%3A6969","udp%3A%2F%2Fexodus.desync.com%3A6969"],"infoHash":"f0dc3062f7d20965b716d294e3890ad42c00458a","infoHashBuffer":{"type":"Buffer","data":[240,220,48,98,247,210,9,101,183,22,210,148,227,137,10,212,44,0,69,138]},"announce":[],"urlList":[]}}